<svg width="17" height="17" viewBox="0 0 17 17" fill="none" xmlns="http://www.w3.org/2000/svg">
<path d="M0.0267558 0.0268555H16.0268V16.0269H0.0267558V0.0268555Z" fill="white" stroke="white" stroke-width="0.0535117"/>
<path d="M5.85745 8.63654C5.85745 9.325 5.30241 9.84801 4.66732 9.84801C4.26172 9.84801 4.03757 9.55982 4.01088 9.47443V9.52246V10.4191C4.01088 10.6592 4.06959 10.6592 4.42716 10.6592V10.8247L3.82409 10.8087L3.22636 10.8247V10.6592C3.58393 10.6592 3.64264 10.6592 3.64264 10.4191V7.92139C3.64264 7.68657 3.60528 7.65455 3.22636 7.65455V7.4891L3.99487 7.4304V7.78263C4.10161 7.66522 4.32576 7.4304 4.74204 7.4304C5.33977 7.4304 5.85745 7.95875 5.85745 8.63654ZM5.41449 8.63654C5.41449 8.03347 5.08894 7.56382 4.69934 7.56382C4.42716 7.56382 4.16565 7.71859 4.01088 7.99077V9.1809C4.01088 9.28764 4.01088 9.29297 4.0856 9.40505C4.2297 9.62386 4.4325 9.7306 4.64597 9.7306C5.04091 9.7306 5.41449 9.2823 5.41449 8.63654ZM7.8143 11.0595C7.8143 11.0862 7.78762 11.1129 7.76093 11.1129C7.75026 11.1129 7.73958 11.1075 7.72891 11.1022C7.14185 10.6592 6.58148 9.59184 6.58148 8.67923V8.23093C6.58148 7.31832 7.14185 6.25094 7.72891 5.80798C7.73958 5.80264 7.75026 5.7973 7.76093 5.7973C7.78762 5.7973 7.8143 5.82399 7.8143 5.85067C7.8143 5.86668 7.80363 5.88269 7.79295 5.89337C7.23792 6.30965 6.86967 7.37703 6.86967 8.23093V8.67923C6.86967 9.53314 7.23792 10.6005 7.79295 11.0168C7.80363 11.0275 7.8143 11.0435 7.8143 11.0595ZM10.8706 9.78931C10.7105 9.77863 10.5023 9.7733 10.3583 9.7733L9.78187 9.78931V9.62386C9.92596 9.61853 9.974 9.53847 9.974 9.49044C9.974 9.45842 9.90462 9.37303 9.86192 9.31432L9.45632 8.78063C9.13077 9.16489 8.97599 9.34101 8.97599 9.45842C8.97599 9.53847 9.01335 9.60785 9.13077 9.62386V9.78931L8.62376 9.7733C8.485 9.7733 8.31956 9.77863 8.1808 9.78931V9.62386C8.29287 9.62386 8.60775 9.61319 8.86392 9.30365C9.11475 8.99945 9.11475 8.98877 9.36559 8.66856L8.83724 7.9801C8.5864 7.65988 8.58106 7.65455 8.20748 7.65455V7.4891C8.35158 7.49978 8.60241 7.50511 8.71449 7.50511L9.29087 7.4891V7.65455C9.18413 7.65988 9.10408 7.70791 9.10408 7.78797C9.10408 7.81999 9.10408 7.83066 9.15211 7.88403L9.56839 8.42306L9.89928 8.00678C9.92596 7.97476 9.97933 7.90538 9.97933 7.81999C9.97933 7.7346 9.93664 7.66522 9.82456 7.65455V7.4891C9.89394 7.49444 10.1768 7.50511 10.3369 7.50511C10.4757 7.50511 10.6358 7.49978 10.7745 7.4891V7.65455C10.5237 7.65988 10.3049 7.73994 10.1394 7.93206C10.0114 8.07082 9.80855 8.33233 9.64844 8.53513L10.3636 9.45842C10.4863 9.61319 10.5824 9.62386 10.8706 9.62386V9.78931ZM12.4734 8.67923C12.4734 9.59184 11.913 10.6592 11.3259 11.1022C11.3153 11.1075 11.3046 11.1129 11.2939 11.1129C11.2672 11.1129 11.2406 11.0862 11.2406 11.0595C11.2406 11.0435 11.2512 11.0275 11.2619 11.0168C11.8169 10.6005 12.1852 9.53314 12.1852 8.67923V8.23093C12.1852 7.37703 11.8169 6.30965 11.2619 5.89337C11.2512 5.88269 11.2406 5.86668 11.2406 5.85067C11.2406 5.82399 11.2672 5.7973 11.2939 5.7973C11.3046 5.7973 11.3153 5.80264 11.3259 5.80798C11.913 6.25094 12.4734 7.31832 12.4734 8.23093V8.67923Z" fill="black"/>
</svg>
