<svg width="257" height="257" viewBox="0 0 257 257" fill="none" xmlns="http://www.w3.org/2000/svg">
<path d="M0.428101 0.428223H256.428V256.428H0.428101V0.428223Z" fill="white" stroke="white" stroke-width="0.856187"/>
<path d="M100.917 126.984C100.917 137.999 92.0359 146.368 81.8744 146.368C75.3848 146.368 71.7984 141.756 71.3714 140.39V141.159V155.504C71.3714 159.347 72.3107 159.347 78.0319 159.347V161.994L68.3828 161.738L58.819 161.994V159.347C64.5402 159.347 65.4795 159.347 65.4795 155.504V115.542C65.4795 111.784 64.8818 111.272 58.819 111.272V108.625L71.1153 107.686V113.321C72.8231 111.443 76.4095 107.686 83.0699 107.686C92.6336 107.686 100.917 116.139 100.917 126.984ZM93.8291 126.984C93.8291 117.335 88.6203 109.82 82.3868 109.82C78.0319 109.82 73.8477 112.297 71.3714 116.652V135.694C71.3714 137.402 71.3714 137.487 72.5669 139.28C74.8724 142.781 78.1173 144.489 81.5329 144.489C87.8518 144.489 93.8291 137.316 93.8291 126.984ZM132.226 165.751C132.226 166.178 131.799 166.605 131.372 166.605C131.201 166.605 131.031 166.52 130.86 166.434C121.467 159.347 112.501 142.269 112.501 127.667V120.494C112.501 105.892 121.467 88.8144 130.86 81.727C131.031 81.6416 131.201 81.5562 131.372 81.5562C131.799 81.5562 132.226 81.9832 132.226 82.4101C132.226 82.6663 132.055 82.9224 131.885 83.0932C123.004 89.7537 117.112 106.832 117.112 120.494V127.667C117.112 141.329 123.004 158.408 131.885 165.068C132.055 165.239 132.226 165.495 132.226 165.751ZM181.127 145.428C178.565 145.257 175.235 145.172 172.929 145.172L163.707 145.428V142.781C166.013 142.696 166.781 141.415 166.781 140.646C166.781 140.134 165.671 138.768 164.988 137.828L158.498 129.289C153.29 135.438 150.813 138.255 150.813 140.134C150.813 141.415 151.411 142.525 153.29 142.781V145.428L145.177 145.172C142.957 145.172 140.31 145.257 138.09 145.428V142.781C139.883 142.781 144.921 142.61 149.02 137.658C153.033 132.79 153.033 132.62 157.047 127.496L148.593 116.481C144.58 111.357 144.494 111.272 138.517 111.272V108.625C140.823 108.796 144.836 108.881 146.629 108.881L155.851 108.625V111.272C154.143 111.357 152.863 112.126 152.863 113.407C152.863 113.919 152.863 114.09 153.631 114.944L160.292 123.568L165.586 116.908C166.013 116.395 166.867 115.285 166.867 113.919C166.867 112.553 166.183 111.443 164.39 111.272V108.625C165.5 108.71 170.026 108.881 172.588 108.881C174.808 108.881 177.37 108.796 179.59 108.625V111.272C175.576 111.357 172.075 112.638 169.428 115.712C167.379 117.933 164.134 122.117 161.572 125.361L173.015 140.134C174.979 142.61 176.516 142.781 181.127 142.781V145.428ZM206.771 127.667C206.771 142.269 197.805 159.347 188.412 166.434C188.242 166.52 188.071 166.605 187.9 166.605C187.473 166.605 187.046 166.178 187.046 165.751C187.046 165.495 187.217 165.239 187.388 165.068C196.268 158.408 202.16 141.329 202.16 127.667V120.494C202.16 106.832 196.268 89.7537 187.388 83.0932C187.217 82.9224 187.046 82.6663 187.046 82.4101C187.046 81.9832 187.473 81.5562 187.9 81.5562C188.071 81.5562 188.242 81.6416 188.412 81.727C197.805 88.8144 206.771 105.892 206.771 120.494V127.667Z" fill="black"/>
</svg>
