<svg width="514" height="514" viewBox="0 0 514 514" fill="none" xmlns="http://www.w3.org/2000/svg">
<path d="M0.856201 0.855957H512.856V512.856H0.856201V0.855957Z" fill="white" stroke="white" stroke-width="1.71237"/>
<path d="M201.833 254.967C201.833 276.998 184.072 293.735 163.749 293.735C150.77 293.735 143.597 284.512 142.743 281.78V283.317V312.008C142.743 319.693 144.621 319.693 156.064 319.693V324.987L136.766 324.475L117.638 324.987V319.693C129.08 319.693 130.959 319.693 130.959 312.008V232.083C130.959 224.568 129.764 223.544 117.638 223.544V218.249L142.231 216.371V227.642C145.646 223.885 152.819 216.371 166.14 216.371C185.267 216.371 201.833 233.278 201.833 254.967ZM187.658 254.967C187.658 235.669 177.241 220.64 164.774 220.64C156.064 220.64 147.695 225.593 142.743 234.303V272.387C142.743 275.803 142.743 275.973 145.134 279.56C149.745 286.562 156.235 289.977 163.066 289.977C175.704 289.977 187.658 275.632 187.658 254.967ZM264.452 332.502C264.452 333.356 263.598 334.21 262.744 334.21C262.403 334.21 262.061 334.039 261.72 333.868C242.934 319.693 225.002 285.537 225.002 256.334V241.988C225.002 212.784 242.934 178.628 261.72 164.453C262.061 164.283 262.403 164.112 262.744 164.112C263.598 164.112 264.452 164.966 264.452 165.82C264.452 166.332 264.111 166.844 263.769 167.186C246.008 180.507 234.224 214.663 234.224 241.988V256.334C234.224 283.658 246.008 317.815 263.769 331.136C264.111 331.477 264.452 331.989 264.452 332.502ZM362.254 291.856C357.13 291.514 350.47 291.344 345.859 291.344L327.414 291.856V286.562C332.025 286.391 333.562 283.829 333.562 282.292C333.562 281.268 331.342 278.535 329.976 276.656L316.997 259.578C306.579 271.875 301.626 277.51 301.626 281.268C301.626 283.829 302.822 286.049 306.579 286.562V291.856L290.355 291.344C285.915 291.344 280.62 291.514 276.18 291.856V286.562C279.766 286.562 289.843 286.22 298.04 276.315C306.067 266.58 306.067 266.239 314.093 255.992L297.186 233.961C289.159 223.714 288.989 223.544 277.034 223.544V218.249C281.645 218.591 289.672 218.762 293.258 218.762L311.702 218.249V223.544C308.287 223.714 305.725 225.251 305.725 227.813C305.725 228.838 305.725 229.179 307.262 230.887L320.583 248.136L331.171 234.815C332.025 233.79 333.733 231.57 333.733 228.838C333.733 226.105 332.367 223.885 328.781 223.544V218.249C331.001 218.42 340.052 218.762 345.176 218.762C349.616 218.762 354.739 218.591 359.18 218.249V223.544C351.153 223.714 344.151 226.276 338.857 232.424C334.758 236.865 328.268 245.233 323.145 251.722L346.029 281.268C349.957 286.22 353.031 286.562 362.254 286.562V291.856ZM413.543 256.334C413.543 285.537 395.611 319.693 376.825 333.868C376.483 334.039 376.142 334.21 375.8 334.21C374.946 334.21 374.092 333.356 374.092 332.502C374.092 331.989 374.434 331.477 374.775 331.136C392.536 317.815 404.32 283.658 404.32 256.334V241.988C404.32 214.663 392.536 180.507 374.775 167.186C374.434 166.844 374.092 166.332 374.092 165.82C374.092 164.966 374.946 164.112 375.8 164.112C376.142 164.112 376.483 164.283 376.825 164.453C395.611 178.628 413.543 212.784 413.543 241.988V256.334Z" fill="black"/>
</svg>
