<svg width="1028" height="1028" viewBox="0 0 1028 1028" fill="none" xmlns="http://www.w3.org/2000/svg">
<path d="M1.7124 1.7124H1025.71V1025.71H1.7124V1.7124Z" fill="white" stroke="white" stroke-width="3.42475"/>
<path d="M403.666 509.935C403.666 553.997 368.144 587.47 327.498 587.47C301.539 587.47 287.193 569.025 285.486 563.56V566.634V624.017C285.486 639.387 289.243 639.387 312.127 639.387V649.975L273.531 648.951L235.276 649.975V639.387C258.161 639.387 261.918 639.387 261.918 624.017V464.166C261.918 449.137 259.527 447.088 235.276 447.088V436.499L284.461 432.742V455.285C291.292 447.771 305.638 432.742 332.28 432.742C370.535 432.742 403.666 466.557 403.666 509.935ZM375.316 509.935C375.316 471.339 354.481 441.281 329.547 441.281C312.127 441.281 295.391 451.186 285.486 468.606V544.774C285.486 551.606 285.486 551.947 290.268 559.12C299.49 573.124 312.469 579.955 326.132 579.955C351.407 579.955 375.316 551.264 375.316 509.935ZM528.904 665.004C528.904 666.712 527.197 668.42 525.489 668.42C524.806 668.42 524.123 668.078 523.439 667.737C485.868 639.387 450.004 571.075 450.004 512.668V483.976C450.004 425.569 485.868 357.257 523.439 328.907C524.123 328.566 524.806 328.224 525.489 328.224C527.197 328.224 528.904 329.932 528.904 331.64C528.904 332.665 528.221 333.689 527.538 334.372C492.016 361.014 468.448 429.327 468.448 483.976V512.668C468.448 567.317 492.016 635.63 527.538 662.272C528.221 662.955 528.904 663.979 528.904 665.004ZM724.507 583.712C714.26 583.029 700.939 582.688 691.717 582.688L654.829 583.712V573.124C664.051 572.782 667.125 567.659 667.125 564.585C667.125 562.536 662.684 557.071 659.952 553.313L633.993 519.157C613.158 543.75 603.253 555.021 603.253 562.536C603.253 567.659 605.644 572.099 613.158 573.124V583.712L580.71 582.688C571.829 582.688 561.241 583.029 552.36 583.712V573.124C559.533 573.124 579.685 572.441 596.08 552.63C612.133 533.161 612.133 532.478 628.187 511.984L594.372 467.923C578.319 447.429 577.977 447.088 554.068 447.088V436.499C563.29 437.182 579.343 437.524 586.516 437.524L623.405 436.499V447.088C616.574 447.429 611.45 450.503 611.45 455.627C611.45 457.676 611.45 458.359 614.524 461.775L641.166 496.273L662.343 469.631C664.051 467.581 667.466 463.141 667.466 457.676C667.466 452.211 664.734 447.771 657.561 447.088V436.499C662.001 436.841 680.104 437.524 690.351 437.524C699.232 437.524 709.478 437.182 718.359 436.499V447.088C702.306 447.429 688.302 452.553 677.713 464.849C669.516 473.73 656.536 490.466 646.289 503.445L692.059 562.536C699.915 572.441 706.063 573.124 724.507 573.124V583.712ZM827.085 512.668C827.085 571.075 791.221 639.387 753.649 667.737C752.966 668.078 752.283 668.42 751.6 668.42C749.892 668.42 748.184 666.712 748.184 665.004C748.184 663.979 748.867 662.955 749.551 662.272C785.073 635.63 808.641 567.317 808.641 512.668V483.976C808.641 429.327 785.073 361.014 749.551 334.372C748.867 333.689 748.184 332.665 748.184 331.64C748.184 329.932 749.892 328.224 751.6 328.224C752.283 328.224 752.966 328.566 753.649 328.907C791.221 357.257 827.085 425.569 827.085 483.976V512.668Z" fill="black"/>
</svg>
