<svg width="33" height="33" viewBox="0 0 33 33" fill="none" xmlns="http://www.w3.org/2000/svg">
<path d="M0.0535126 0.0534668H32.0535V32.0535H0.0535126V0.0534668Z" fill="white" stroke="white" stroke-width="0.107023"/>
<path d="M11.7149 17.2728C11.7149 18.6497 10.6048 19.6958 9.33464 19.6958C8.52343 19.6958 8.07513 19.1194 8.02176 18.9486V19.0447V20.8379C8.02176 21.3182 8.13917 21.3182 8.85431 21.3182V21.6491L7.64817 21.6171L6.45271 21.6491V21.3182C7.16785 21.3182 7.28527 21.3182 7.28527 20.8379V15.8425C7.28527 15.3729 7.21055 15.3088 6.45271 15.3088V14.978L7.98974 14.8605V15.565C8.20321 15.3302 8.65151 14.8605 9.48407 14.8605C10.6795 14.8605 11.7149 15.9173 11.7149 17.2728ZM10.829 17.2728C10.829 16.0667 10.1779 15.1274 9.39868 15.1274C8.85431 15.1274 8.3313 15.4369 8.02176 15.9813V18.3616C8.02176 18.575 8.02176 18.5857 8.17119 18.8099C8.45938 19.2475 8.86499 19.461 9.29194 19.461C10.0818 19.461 10.829 18.5644 10.829 17.2728ZM15.6286 22.1187C15.6286 22.1721 15.5752 22.2255 15.5219 22.2255C15.5005 22.2255 15.4792 22.2148 15.4578 22.2041C14.2837 21.3182 13.1629 19.1834 13.1629 17.3582V16.4616C13.1629 14.6364 14.2837 12.5016 15.4578 11.6157C15.4792 11.605 15.5005 11.5944 15.5219 11.5944C15.5752 11.5944 15.6286 11.6477 15.6286 11.7011C15.6286 11.7331 15.6072 11.7651 15.5859 11.7865C14.4758 12.6191 13.7393 14.7538 13.7393 16.4616V17.3582C13.7393 19.066 14.4758 21.2008 15.5859 22.0333C15.6072 22.0547 15.6286 22.0867 15.6286 22.1187ZM21.7412 19.5784C21.421 19.557 21.0047 19.5463 20.7165 19.5463L19.5637 19.5784V19.2475C19.8519 19.2368 19.948 19.0767 19.948 18.9806C19.948 18.9166 19.8092 18.7458 19.7238 18.6284L18.9126 17.561C18.2615 18.3295 17.952 18.6818 17.952 18.9166C17.952 19.0767 18.0267 19.2155 18.2615 19.2475V19.5784L17.2475 19.5463C16.97 19.5463 16.6391 19.557 16.3616 19.5784V19.2475C16.5857 19.2475 17.2155 19.2261 17.7278 18.6071C18.2295 17.9986 18.2295 17.9773 18.7312 17.3369L17.6745 15.96C17.1728 15.3195 17.1621 15.3088 16.415 15.3088V14.978C16.7031 14.9993 17.2048 15.01 17.429 15.01L18.5817 14.978V15.3088C18.3683 15.3195 18.2081 15.4156 18.2081 15.5757C18.2081 15.6397 18.2081 15.6611 18.3042 15.7678L19.1368 16.8459L19.7985 16.0133C19.8519 15.9493 19.9587 15.8105 19.9587 15.6397C19.9587 15.469 19.8733 15.3302 19.6491 15.3088V14.978C19.7879 14.9886 20.3536 15.01 20.6738 15.01C20.9513 15.01 21.2715 14.9993 21.549 14.978V15.3088C21.0474 15.3195 20.6098 15.4796 20.2789 15.8639C20.0227 16.1414 19.6171 16.6644 19.2969 17.07L20.7272 18.9166C20.9727 19.2261 21.1648 19.2475 21.7412 19.2475V19.5784ZM24.9467 17.3582C24.9467 19.1834 23.826 21.3182 22.6519 22.2041C22.6305 22.2148 22.6092 22.2255 22.5878 22.2255C22.5345 22.2255 22.4811 22.1721 22.4811 22.1187C22.4811 22.0867 22.5024 22.0547 22.5238 22.0333C23.6339 21.2008 24.3703 19.066 24.3703 17.3582V16.4616C24.3703 14.7538 23.6339 12.6191 22.5238 11.7865C22.5024 11.7651 22.4811 11.7331 22.4811 11.7011C22.4811 11.6477 22.5345 11.5944 22.5878 11.5944C22.6092 11.5944 22.6305 11.605 22.6519 11.6157C23.826 12.5016 24.9467 14.6364 24.9467 16.4616V17.3582Z" fill="black"/>
</svg>
