<svg width="65" height="65" viewBox="0 0 65 65" fill="none" xmlns="http://www.w3.org/2000/svg">
<path d="M0.107025 0.106934H64.107V64.1069H0.107025V0.106934Z" fill="white" stroke="white" stroke-width="0.214047"/>
<path d="M25.2291 32.4959C25.2291 35.2497 23.009 37.3418 20.4686 37.3418C18.8462 37.3418 17.9496 36.189 17.8429 35.8474V36.0396V39.626C17.8429 40.5866 18.0777 40.5866 19.508 40.5866V41.2484L17.0957 41.1843L14.7048 41.2484V40.5866C16.135 40.5866 16.3699 40.5866 16.3699 39.626V29.6353C16.3699 28.696 16.2204 28.5679 14.7048 28.5679V27.9061L17.7788 27.6713V29.0802C18.2058 28.6106 19.1024 27.6713 20.7675 27.6713C23.1584 27.6713 25.2291 29.7847 25.2291 32.4959ZM23.4573 32.4959C23.4573 30.0836 22.1551 28.205 20.5967 28.205C19.508 28.205 18.4619 28.8241 17.8429 29.9128V34.6733C17.8429 35.1003 17.8429 35.1216 18.1417 35.5699C18.7181 36.4452 19.5293 36.8721 20.3832 36.8721C21.9629 36.8721 23.4573 35.0789 23.4573 32.4959ZM33.0565 42.1877C33.0565 42.2944 32.9498 42.4011 32.843 42.4011C32.8004 42.4011 32.7577 42.3798 32.715 42.3584C30.3667 40.5866 28.1252 36.3171 28.1252 32.6666V30.8734C28.1252 27.223 30.3667 22.9535 32.715 21.1816C32.7577 21.1603 32.8004 21.1389 32.843 21.1389C32.9498 21.1389 33.0565 21.2457 33.0565 21.3524C33.0565 21.4164 33.0138 21.4805 32.9711 21.5232C30.751 23.1883 29.278 27.4578 29.278 30.8734V32.6666C29.278 36.0822 30.751 40.3518 32.9711 42.0169C33.0138 42.0596 33.0565 42.1236 33.0565 42.1877ZM45.2817 37.1069C44.6413 37.0642 43.8087 37.0429 43.2323 37.0429L40.9268 37.1069V36.4452C41.5032 36.4238 41.6953 36.1036 41.6953 35.9115C41.6953 35.7834 41.4178 35.4418 41.247 35.207L39.6246 33.0722C38.3224 34.6093 37.7033 35.3137 37.7033 35.7834C37.7033 36.1036 37.8527 36.3811 38.3224 36.4452V37.1069L36.2944 37.0429C35.7393 37.0429 35.0775 37.0642 34.5225 37.1069V36.4452C34.9708 36.4452 36.2303 36.4025 37.255 35.1643C38.2583 33.9475 38.2583 33.9048 39.2617 32.6239L37.1483 29.8701C36.1449 28.5892 36.1236 28.5679 34.6292 28.5679V27.9061C35.2056 27.9488 36.209 27.9702 36.6573 27.9702L38.9628 27.9061V28.5679C38.5359 28.5892 38.2156 28.7814 38.2156 29.1016C38.2156 29.2297 38.2156 29.2724 38.4078 29.4858L40.0729 31.6419L41.3964 29.9768C41.5032 29.8487 41.7166 29.5712 41.7166 29.2297C41.7166 28.8881 41.5459 28.6106 41.0976 28.5679V27.9061C41.3751 27.9275 42.5065 27.9702 43.1469 27.9702C43.702 27.9702 44.3424 27.9488 44.8974 27.9061V28.5679C43.8941 28.5892 43.0188 28.9095 42.3571 29.678C41.8447 30.233 41.0335 31.279 40.3931 32.0902L43.2537 35.7834C43.7447 36.4025 44.1289 36.4452 45.2817 36.4452V37.1069ZM51.6928 32.6666C51.6928 36.3171 49.4513 40.5866 47.1031 42.3584C47.0604 42.3798 47.0177 42.4011 46.975 42.4011C46.8683 42.4011 46.7615 42.2944 46.7615 42.1877C46.7615 42.1236 46.8042 42.0596 46.8469 42.0169C49.0671 40.3518 50.54 36.0822 50.54 32.6666V30.8734C50.54 27.4578 49.0671 23.1883 46.8469 21.5232C46.8042 21.4805 46.7615 21.4164 46.7615 21.3524C46.7615 21.2457 46.8683 21.1389 46.975 21.1389C47.0177 21.1389 47.0604 21.1603 47.1031 21.1816C49.4513 22.9535 51.6928 27.223 51.6928 30.8734V32.6666Z" fill="black"/>
</svg>
