<svg width="129" height="129" viewBox="0 0 129 129" fill="none" xmlns="http://www.w3.org/2000/svg">
<path d="M0.21405 0.213867H128.214V128.214H0.21405V0.213867Z" fill="white" stroke="white" stroke-width="0.428094"/>
<path d="M50.4583 63.9917C50.4583 69.4994 46.018 73.6835 40.9372 73.6835C37.6924 73.6835 35.8992 71.378 35.6857 70.6949V71.0791V78.2519C35.6857 80.1732 36.1554 80.1732 39.0159 80.1732V81.4967L34.1914 81.3687L29.4095 81.4967V80.1732C32.2701 80.1732 32.7397 80.1732 32.7397 78.2519V58.2705C32.7397 56.392 32.4409 56.1358 29.4095 56.1358V54.8122L35.5576 54.3426V57.1605C36.4115 56.2212 38.2047 54.3426 41.535 54.3426C46.3168 54.3426 50.4583 58.5694 50.4583 63.9917ZM46.9145 63.9917C46.9145 59.1671 44.3101 55.41 41.1934 55.41C39.0159 55.41 36.9239 56.6481 35.6857 58.8256V68.3466C35.6857 69.2005 35.6857 69.2432 36.2834 70.1398C37.4362 71.8903 39.0586 72.7442 40.7664 72.7442C43.9259 72.7442 46.9145 69.1578 46.9145 63.9917ZM66.113 83.3753C66.113 83.5888 65.8996 83.8023 65.6861 83.8023C65.6007 83.8023 65.5153 83.7596 65.4299 83.7169C60.7335 80.1732 56.2505 71.6341 56.2505 64.3333V60.7469C56.2505 53.446 60.7335 44.9069 65.4299 41.3632C65.5153 41.3205 65.6007 41.2779 65.6861 41.2779C65.8996 41.2779 66.113 41.4913 66.113 41.7048C66.113 41.8329 66.0277 41.961 65.9423 42.0464C61.502 45.3766 58.556 53.9156 58.556 60.7469V64.3333C58.556 71.1645 61.502 79.7035 65.9423 83.0338C66.0277 83.1192 66.113 83.2472 66.113 83.3753ZM90.5634 73.2139C89.2825 73.1285 87.6174 73.0858 86.4646 73.0858L81.8536 73.2139V71.8903C83.0063 71.8476 83.3906 71.2072 83.3906 70.8229C83.3906 70.5668 82.8356 69.8836 82.494 69.414L79.2492 65.1445C76.6448 68.2185 75.4066 69.6275 75.4066 70.5668C75.4066 71.2072 75.7055 71.7622 76.6448 71.8903V73.2139L72.5887 73.0858C71.4786 73.0858 70.1551 73.1285 69.045 73.2139V71.8903C69.9416 71.8903 72.4606 71.8049 74.51 69.3286C76.5167 66.895 76.5167 66.8096 78.5233 64.2479L74.2965 58.7402C72.2898 56.1785 72.2471 56.1358 69.2585 56.1358V54.8122C70.4113 54.8976 72.4179 54.9403 73.3145 54.9403L77.9256 54.8122V56.1358C77.0717 56.1785 76.4313 56.5627 76.4313 57.2032C76.4313 57.4593 76.4313 57.5447 76.8155 57.9717L80.1458 62.2839L82.7929 58.9537C83.0063 58.6975 83.4333 58.1425 83.4333 57.4593C83.4333 56.7762 83.0917 56.2212 82.1951 56.1358V54.8122C82.7502 54.8549 85.013 54.9403 86.2939 54.9403C87.4039 54.9403 88.6848 54.8976 89.7949 54.8122V56.1358C87.7882 56.1785 86.0377 56.8189 84.7141 58.3559C83.6895 59.466 82.067 61.5581 80.7862 63.1805L86.5073 70.5668C87.4893 71.8049 88.2578 71.8903 90.5634 71.8903V73.2139ZM103.386 64.3333C103.386 71.6341 98.9026 80.1732 94.2062 83.7169C94.1208 83.7596 94.0354 83.8023 93.95 83.8023C93.7365 83.8023 93.523 83.5888 93.523 83.3753C93.523 83.2472 93.6084 83.1192 93.6938 83.0338C98.1341 79.7035 101.08 71.1645 101.08 64.3333V60.7469C101.08 53.9156 98.1341 45.3766 93.6938 42.0464C93.6084 41.961 93.523 41.8329 93.523 41.7048C93.523 41.4913 93.7365 41.2779 93.95 41.2779C94.0354 41.2779 94.1208 41.3205 94.2062 41.3632C98.9026 44.9069 103.386 53.446 103.386 60.7469V64.3333Z" fill="black"/>
</svg>
